<?xml version="1.0" standalone="no"?><!DOCTYPE svg PUBLIC "-//W3C//DTD SVG 1.1//EN" "http://www.w3.org/Graphics/SVG/1.1/DTD/svg11.dtd"><svg t="1585406512582" class="icon" viewBox="0 0 1024 1024" version="1.1" xmlns="http://www.w3.org/2000/svg" p-id="2254" xmlns:xlink="http://www.w3.org/1999/xlink" width="200" height="200"><defs><style type="text/css"></style></defs><path d="M138.2 512.1c0-206.1 167.1-373.2 373.2-373.2S884.6 306 884.6 512.1 717.5 885.3 511.4 885.3c-206.1 0.1-373.2-167-373.2-373.2zM511.5 64.3c-247.4 0-447.9 200.5-447.9 447.9C63.6 759.5 264.1 960 511.5 960c247.4 0 447.9-200.5 447.9-447.9-0.1-247.3-200.6-447.8-447.9-447.8z m37.3 298.5c0-20.6-16.7-37.3-37.3-37.3s-37.3 16.7-37.3 37.3v208.5L425.9 523c-14.6-14.6-38.2-14.6-52.8 0-14.6 14.6-14.6 38.2 0 52.8l112 112c7 7 16.5 10.9 26.4 10.9s19.4-3.9 26.4-10.9l112-112c14.6-14.6 14.6-38.2 0-52.8-14.6-14.6-38.2-14.6-52.8 0l-48.3 48.3V362.8z" p-id="2255" fill="currentColor"></path></svg>