<?xml version="1.0" standalone="no"?><!DOCTYPE svg PUBLIC "-//W3C//DTD SVG 1.1//EN" "http://www.w3.org/Graphics/SVG/1.1/DTD/svg11.dtd"><svg t="1584860464735" class="icon" viewBox="0 0 1024 1024" version="1.1" xmlns="http://www.w3.org/2000/svg" p-id="10791" xmlns:xlink="http://www.w3.org/1999/xlink" width="200" height="200"><defs><style type="text/css"></style></defs><path d="M745.711544 47.197908C485.876051-86.547831 86.668831 73.447857 164.354679 408.281203l-38.935924 47.091908-68.811866 125.965754 66.93587 53.215896-2.765995 89.465825 26.733948 38.341925s-31.857938 119.685766 16.841967 136.685733c90.825823 31.685938 197.791614 16.091969 197.791614 16.091969l5.311989 108.843787h451.847118s-44.717913-225.651559 23.185955-321.523372c67.905867-95.873813 289.401435-456.425109-96.777811-655.26272z" fill="#EAC6BB" p-id="10792"></path><path d="M745.711544 47.197908C677.183677 11.915977 598.93583-2.925994 522.29598 0.509999c62.607878 2.781995 124.887756 17.937965 180.729647 46.685909 386.207246 198.837612 164.713678 559.388907 96.809811 655.26472-67.905867 95.871813-23.187955 321.523372-23.187955 321.523372h42.655917s-44.717913-225.651559 23.185955-321.523372c67.905867-95.873813 289.401435-456.425109-96.777811-655.26272z" fill="#FFFFFF" opacity=".2" p-id="10793"></path><path d="M745.711544 47.197908C504.206015-77.111849 142.292722 52.321898 154.824698 340.065336c17.763965 16.437968 42.233918 35.62393 74.481854 54.155894 46.02991 26.465948 98.809807 46.339909 156.901694 59.121885 71.965859 15.843969 152.337702 20.749959 238.945533 14.593971 182.777643-12.937975 263.397486 41.281919 304.553405 75.685852 60.185882-150.713706 78.935846-361.053295-183.99564-496.42503z" fill="#DBADA2" p-id="10794"></path><path d="M774.525487 473.873074l-3.811992-19.217962h58.467886l-57.561888-86.371831 53.999894-22.375957-86.249831-57.749887 41.375919-41.341919-101.809801-20.37396 22.405956-53.999895-101.841801 20.123961V134.101738l-86.371831 57.561888-22.375957-54.029895-57.763887 86.249832-41.341919-41.34392-20.35996 101.777802-54.029895-22.373957 20.139961 101.841801h-58.467886l49.217904 73.839856a622.914783 622.914783 0 0 0 58.061887 15.71797c71.965859 15.843969 152.337702 20.749959 238.945533 14.593971 60.091883-4.251992 109.121787-1.251998 149.371708 5.935988z" fill="#DA4453" p-id="10795"></path><path d="M796.681444 475.99907h72.373859l-65.279873-97.933808 66.84187-27.687946-97.779809-65.499872 51.1559-51.1839-115.403775-23.063955 27.685946-66.87387L620.841787 166.599675V94.227816l-97.951808 65.279872-27.685946-66.841869-65.497872 97.779809-51.1699-51.1559-23.077955 115.403775-66.85787-27.687946 22.843956 115.433774h-72.373859l55.373892 83.059838c20.889959 8.281984 42.795916 15.46597 65.591872 21.497958l-20.185961-30.279941-21.061959-31.591938h44.577913l-10.07798-50.967901-7.359986-37.249927 41.18592 17.061967 10.18598-50.903901 7.437985-37.247927 31.529939 31.529938 28.889943-43.153915 21.139959-31.561939 17.061967 41.18792 43.201915-28.811944 31.591939-21.061959v44.593913l50.9679-10.09398 37.249927-7.343986-17.061966 41.18592 50.9039 10.18798 37.247928 7.437985-31.529939 31.529939 43.153916 28.875943 31.561938 21.123959-41.187919 17.061967 28.811943 43.215915 21.061959 31.593939H744.739545l7.343986 37.123927c16.281968 2.093996 31.281939 4.843991 45.093912 8.093984l-0.495999-2.533995z" fill="#ED5564" p-id="10796"></path></svg>