<?xml version="1.0" standalone="no"?><!DOCTYPE svg PUBLIC "-//W3C//DTD SVG 1.1//EN" "http://www.w3.org/Graphics/SVG/1.1/DTD/svg11.dtd"><svg t="1584860477847" class="icon" viewBox="0 0 1024 1024" version="1.1" xmlns="http://www.w3.org/2000/svg" p-id="10919" xmlns:xlink="http://www.w3.org/1999/xlink" width="200" height="200"><defs><style type="text/css"></style></defs><path d="M568 868v52l100-8v-52l-100 8z" fill="#FF9C1A" p-id="10920"></path><path d="M568 868v52l100-8v-52l-100 8z" fill="#39BDBD" p-id="10921"></path><path d="M148 856v52l64 52v-52l-64-52z" fill="#FF9C1A" p-id="10922"></path><path d="M148 856v52l64 52v-52l-64-52z" fill="#39BDBD" p-id="10923"></path><path d="M76 484v52l36 92v-52l-36-92z" fill="#FF9C1A" p-id="10924"></path><path d="M76 484v52l36 92v-52l-36-92z" fill="#00537D" p-id="10925"></path><path d="M244 592v52l76-40v-52l-76 40z" fill="#FF9C1A" p-id="10926"></path><path d="M244 592v52l76-40v-52l-76 40z" fill="#00537D" p-id="10927"></path><path d="M788 648v52l68 40v-52l-68-40z" fill="#FF9C1A" p-id="10928"></path><path d="M788 648v52l68 40v-52l-68-40z" fill="#39BDBD" p-id="10929"></path><path d="M801.6 141.24L812 128V76l-44 56 33.6 9.24z" fill="#FF9C1A" p-id="10930"></path><path d="M801.6 141.24L812 128V76l-44 56 33.6 9.24z" fill="#00537D" p-id="10931"></path><path d="M408 684v52l16.08 32.12L444 756l-36-72z" fill="#FF9C1A" p-id="10932"></path><path d="M408 684v52l16.08 32.12L444 756l-36-72z" fill="#00537D" p-id="10933"></path><path d="M160 268v52l88.6 60.12L272 344 160 268z" fill="#FF9C1A" p-id="10934"></path><path d="M160 268v52l88.6 60.12L272 344 160 268z" fill="#00537D" p-id="10935"></path><path d="M212 908h136v52H212z" fill="#FF9C1A" p-id="10936"></path><path d="M212 908h136v52H212z" fill="#00537D" p-id="10937"></path><path d="M428 972v52l140-104v-52l-140 104z" fill="#FF9C1A" p-id="10938"></path><path d="M428 972v52l140-104v-52l-140 104z" fill="#00537D" p-id="10939"></path><path d="M884.52 311.52L920 276V224l-68 68 32.52 19.52z" fill="#FF9C1A" p-id="10940"></path><path d="M884.52 311.52L920 276V224l-68 68 32.52 19.52z" fill="#00537D" p-id="10941"></path><path d="M976 492l-80 48 20 40 60-36v-52z" fill="#FF9C1A" p-id="10942"></path><path d="M976 492l-80 48 20 40 60-36v-52z" fill="#00537D" p-id="10943"></path><path d="M856 740l80-68v-52l-80 68v52z" fill="#FF9C1A" p-id="10944"></path><path d="M856 740l80-68v-52l-80 68v52z" fill="#00537D" p-id="10945"></path><path d="M712 720l-44 140v52l44-140 76-72v-52l-76 72z" fill="#FF9C1A" p-id="10946"></path><path d="M712 720l-44 140v52l44-140 76-72v-52l-76 72z" fill="#00537D" p-id="10947"></path><path d="M348 908v52l80 64v-52l-80-64z" fill="#FF9C1A" p-id="10948"></path><path d="M348 908v52l80 64v-52l-80-64zM320 552v52l108.84 56 31.16-36z" fill="#39BDBD" p-id="10949"></path><path d="M112 576v52l132 16v-52l-132-16z" fill="#FF9C1A" p-id="10950"></path><path d="M112 576v52l132 16v-52l-132-16z" fill="#39BDBD" p-id="10951"></path><path d="M976 492l-44-152-47.48-28.48L852 292l68-68-36-60-82.4-22.76L768 132l44-56-88-52-160 52-40 72-104-24-96 108-68-32-96 68 112 76-23.4 36.12L228 412l-92 16-60 56 36 92 132 16 76-40 140 72-31.16 35.96L408 684l36 72-19.92 12.12L352 812l-124-24-80 68 64 52h136l80 64 140-104 100-8 44-140 76-72 68 40 80-68-20-40-20-40 80-48z" fill="#D9E021" p-id="10952"></path><path d="M976 492l-44-152-47.48-28.48L852 292l68-68-36-60-82.4-22.76L768 132l44-56-88-52-160 52-40 72-104-24-96 108-68-32-96 68 112 76-23.4 36.12L228 412l-92 16-60 56 36 92 132 16 76-40 140 72-31.16 35.96L408 684l36 72-19.92 12.12L352 812l-124-24-80 68 64 52h136l80 64 140-104 100-8 44-140 76-72 68 40 80-68-20-40-20-40 80-48z" fill="#FF9C1A" p-id="10953"></path><path d="M344 328l108-56 96 52-100 60-104-56z" fill="#39BDBD" p-id="10954"></path><path d="M556 324v148l-108 60V384l108-60z" fill="#00537D" p-id="10955"></path><path d="M448 268l108-56 108 60-108 60-108-64z" fill="#39BDBD" p-id="10956"></path><path d="M664 272v264l-108 60V332l108-60z" fill="#00537D" p-id="10957"></path><path d="M556 448V332l-108-64v116L344 328v148c382.04 216.24 196.88 109.68 316 176v-148z" fill="#E64E17" p-id="10958"></path><path d="M556 448l108-56 104 52-108 60-104-56z" fill="#39BDBD" p-id="10959"></path><path d="M768 444v148l-108 60v-148l108-60z" fill="#00537D" p-id="10960"></path><path d="M464 364v32l28 16v-32l-28-16zM512 392v32l28 16v-32l-28-16zM464 312v32l28 16v-32l-28-16zM512 340v32l28 16v-32l-28-16zM572 488v32l28 16v-32l-28-16zM620 512v32l28 16v-32l-28-16zM356 360v32l28 16v-32l-28-16zM404 384v32l28 16v-32l-28-16z" fill="#ECFFD7" p-id="10961"></path><path d="M512 272l44 24V256l-44-24v40z" fill="#E64E17" p-id="10962"></path><path d="M556 296l40-24V232l-40 24v40z" fill="#85273D" p-id="10963"></path><path d="M512 232l40-24 44 24-40 24-44-24z" fill="#FFCC00" p-id="10964"></path><path d="M540 228l16 8V24l-16-8v212z" fill="#39BDBD" p-id="10965"></path><path d="M556 236l16-8V16l-16 8v212z" fill="#00537D" p-id="10966"></path><path d="M556 8l-16 8 16 8 16-8-16-8z" fill="#FF9C1A" p-id="10967"></path><path d="M556 44l16-8 116 68-16 8-116-68z" fill="#FFCC00" p-id="10968"></path><path d="M556 44v88l116 68V112l-116-68z" fill="#E64E17" p-id="10969"></path><path d="M672 200V112l16-8v84l-16 12z" fill="#85273D" p-id="10970"></path></svg>