<?xml version="1.0" standalone="no"?><!DOCTYPE svg PUBLIC "-//W3C//DTD SVG 1.1//EN" "http://www.w3.org/Graphics/SVG/1.1/DTD/svg11.dtd"><svg t="1586615276161" class="icon" viewBox="0 0 1024 1024" version="1.1" xmlns="http://www.w3.org/2000/svg" p-id="817" xmlns:xlink="http://www.w3.org/1999/xlink" width="200" height="200"><defs><style type="text/css"></style></defs><path d="M427.6 70.8l-263.2 362c-19.2 26.4-0.4 63.6 32.4 63.6H460c22 0 40-18 40-40v-362c0-38.8-49.6-55-72.4-23.6z m16.4 369.6H228L444 143.4v297zM460 516.2H98c-38.8 0-54.8 49.6-23.6 72.4l362 263.2c26.4 19.2 63.6 0.4 63.6-32.4V556.2c0-22.2-18-40-40-40zM444 788L147 572.2H444V788zM827.4 516.2H564c-22 0-40 18-40 40v362c0 38.8 49.6 54.8 72.4 23.6l263.2-362c19.4-26.6 0.4-63.6-32.2-63.6zM580 869V572.2h216L580 869zM949.6 424l-362-263.2c-26.4-19.2-63.6-0.4-63.6 32.4v263.2c0 22 18 40 40 40h362c38.8 0 55-49.6 23.6-72.4zM580 440.4v-216l296.8 215.8H580z" fill="#ffffff" p-id="818"></path></svg>