<?xml version="1.0" standalone="no"?><!DOCTYPE svg PUBLIC "-//W3C//DTD SVG 1.1//EN" "http://www.w3.org/Graphics/SVG/1.1/DTD/svg11.dtd"><svg t="1586620954019" class="icon" viewBox="0 0 1024 1024" version="1.1" xmlns="http://www.w3.org/2000/svg" p-id="1766" xmlns:xlink="http://www.w3.org/1999/xlink" width="200" height="200"><defs><style type="text/css"></style></defs><path d="M853.333333 744.533333H170.666667c-19.2 0-36.266667-12.8-40.533334-29.866666-6.4-17.066667 2.133333-38.4 17.066667-46.933334 0 0 93.866667-70.4 93.866667-305.066666C241.066667 213.333333 362.666667 91.733333 512 91.733333S782.933333 213.333333 782.933333 362.666667c0 234.666667 93.866667 305.066667 96 307.2 14.933333 10.666667 21.333333 29.866667 14.933334 46.933333-6.4 14.933333-21.333333 27.733333-40.533334 27.733333z m-593.066666-85.333333h503.466666c-34.133333-57.6-66.133333-151.466667-66.133333-298.666667 0-102.4-83.2-185.6-185.6-185.6s-185.6 83.2-185.6 185.6c0 147.2-32 241.066667-66.133333 298.666667zM512 934.4c-19.2 0-40.533333-4.266667-59.733333-14.933333-17.066667-10.666667-32-25.6-42.666667-42.666667-12.8-21.333333-4.266667-46.933333 14.933333-57.6 21.333333-12.8 46.933333-4.266667 57.6 14.933333 2.133333 4.266667 6.4 8.533333 12.8 12.8 14.933333 8.533333 36.266667 4.266667 44.8-12.8 12.8-21.333333 38.4-27.733333 57.6-14.933333 21.333333 12.8 27.733333 38.4 14.933334 57.6-19.2 36.266667-59.733333 57.6-100.266667 57.6z" p-id="1767" fill="rgb(79,93,244)"></path></svg>