<svg width="73" height="181" viewBox="0 0 73 181" fill="none" xmlns="http://www.w3.org/2000/svg">
<g filter="url(#filter0_d)">
<path fill-rule="evenodd" clip-rule="evenodd" d="M36.9131 118.13C37.0762 118.095 37.4793 117.908 37.7875 117.433C38.0946 116.961 37.4846 102.45 37.1373 95.1683C38.4348 94.7469 39.2307 93.4048 38.9412 92.0407C38.7367 91.0771 38.0418 90.3436 37.1732 90.0459L36.3686 4.77354L35.7757 4.38823L35.7106 89.9663C34.2685 90.2886 33.3513 91.7127 33.6588 93.1617C33.874 94.1756 34.6321 94.9348 35.5643 95.1996L35.7273 117.359C35.7965 117.686 36.1305 118.296 36.9131 118.13Z" fill="#FF3E3F"/>
<path d="M37.7875 117.433L37.8295 117.461L37.8295 117.461L37.7875 117.433ZM37.1373 95.1683L37.1219 95.1207L37.0856 95.1325L37.0874 95.1707L37.1373 95.1683ZM37.1732 90.0459L37.1232 90.0463L37.1236 90.0817L37.157 90.0932L37.1732 90.0459ZM36.3686 4.77354L36.4186 4.77307L36.4184 4.74624L36.3959 4.73161L36.3686 4.77354ZM35.7757 4.38823L35.803 4.34631L35.7258 4.29615L35.7257 4.38819L35.7757 4.38823ZM35.7106 89.9663L35.7215 90.0151L35.7605 90.0064L35.7606 89.9664L35.7106 89.9663ZM35.5643 95.1996L35.6143 95.1992L35.614 95.1617L35.5779 95.1515L35.5643 95.1996ZM35.7273 117.359L35.6763 117.36L35.6784 117.37L35.7273 117.359ZM37.7456 117.406C37.4444 117.87 37.0525 118.049 36.9027 118.081L36.9235 118.179C37.0998 118.142 37.5141 117.946 37.8295 117.461L37.7456 117.406ZM37.0874 95.1707C37.261 98.8114 37.5003 104.259 37.6578 108.856C37.7366 111.154 37.7949 113.24 37.8143 114.78C37.824 115.55 37.824 116.183 37.812 116.638C37.806 116.866 37.797 117.048 37.7849 117.181C37.7788 117.247 37.772 117.3 37.7645 117.339C37.7566 117.381 37.7492 117.401 37.7456 117.406L37.8295 117.461C37.845 117.437 37.855 117.399 37.8628 117.358C37.8711 117.314 37.8782 117.258 37.8844 117.19C37.8969 117.054 37.9059 116.87 37.912 116.641C37.924 116.184 37.924 115.549 37.9143 114.778C37.8949 113.237 37.8365 111.151 37.7578 108.853C37.6002 104.255 37.3609 98.8069 37.1873 95.1659L37.0874 95.1707ZM38.8923 92.051C39.1764 93.3899 38.3952 94.7071 37.1219 95.1207L37.1528 95.2159C38.4743 94.7866 39.285 93.4197 38.9901 92.0303L38.8923 92.051ZM37.157 90.0932C38.0097 90.3854 38.6916 91.1054 38.8923 92.051L38.9901 92.0303C38.7818 91.0488 38.074 90.3018 37.1894 89.9986L37.157 90.0932ZM36.3186 4.77401L37.1232 90.0463L37.2232 90.0454L36.4186 4.77307L36.3186 4.77401ZM35.7485 4.43016L36.3414 4.81546L36.3959 4.73161L35.803 4.34631L35.7485 4.43016ZM35.7606 89.9664L35.8257 4.38827L35.7257 4.38819L35.6606 89.9663L35.7606 89.9664ZM33.7077 93.1513C33.4059 91.7291 34.3061 90.3314 35.7215 90.0151L35.6996 89.9175C34.2309 90.2458 33.2967 91.6962 33.6099 93.1721L33.7077 93.1513ZM35.5779 95.1515C34.6629 94.8915 33.9189 94.1463 33.7077 93.1513L33.6099 93.1721C33.8291 94.2048 34.6013 94.978 35.5506 95.2477L35.5779 95.1515ZM35.7773 117.359L35.6143 95.1992L35.5143 95.1999L35.6773 117.36L35.7773 117.359ZM36.9027 118.081C36.5274 118.161 36.2646 118.054 36.0863 117.892C35.9058 117.728 35.8092 117.504 35.7762 117.349L35.6784 117.37C35.7147 117.541 35.8197 117.785 36.0191 117.966C36.2208 118.15 36.5163 118.265 36.9235 118.179L36.9027 118.081Z" fill="#FF3E3F"/>
</g>
<circle cx="36.3208" cy="92.699" r="1.5" transform="rotate(168.018 36.3208 92.699)" fill="#222222"/>
<defs>
<filter id="filter0_d" x="8.71794" y="0.174911" width="54.7576" height="122.222" filterUnits="userSpaceOnUse" color-interpolation-filters="sRGB">
<feFlood flood-opacity="0" result="BackgroundImageFix"/>
<feColorMatrix in="SourceAlpha" type="matrix" values="0 0 0 0 0 0 0 0 0 0 0 0 0 0 0 0 0 0 127 0"/>
<feOffset/>
<feGaussianBlur stdDeviation="2"/>
<feColorMatrix type="matrix" values="0 0 0 0 0 0 0 0 0 0 0 0 0 0 0 0 0 0 0.63 0"/>
<feBlend mode="normal" in2="BackgroundImageFix" result="effect1_dropShadow"/>
<feBlend mode="normal" in="SourceGraphic" in2="effect1_dropShadow" result="shape"/>
</filter>
</defs>
</svg>
